<svg width="52" height="52" viewBox="0 0 52 52" fill="none" xmlns="http://www.w3.org/2000/svg">
<g id="Frame 54">
<g id="Group 2243">
<g id="Ellipse 10" filter="url(#filter0_d_2690_50758)">
<circle cx="26" cy="24" r="20" fill="white"/>
</g>
<path id="Vector" d="M25 29H21C19.6167 29 18.4377 28.5123 17.463 27.537C16.4877 26.5623 16 25.3833 16 24C16 22.6167 16.4877 21.4373 17.463 20.462C18.4377 19.4873 19.6167 19 21 19H25V21H21C20.1667 21 19.4583 21.2917 18.875 21.875C18.2917 22.4583 18 23.1667 18 24C18 24.8333 18.2917 25.5417 18.875 26.125C19.4583 26.7083 20.1667 27 21 27H25V29ZM22 25V23H30V25H22ZM27 29V27H31C31.8333 27 32.5417 26.7083 33.125 26.125C33.7083 25.5417 34 24.8333 34 24C34 23.1667 33.7083 22.4583 33.125 21.875C32.5417 21.2917 31.8333 21 31 21H27V19H31C32.3833 19 33.5627 19.4873 34.538 20.462C35.5127 21.4373 36 22.6167 36 24C36 25.3833 35.5127 26.5623 34.538 27.537C33.5627 28.5123 32.3833 29 31 29H27Z" fill="#00284C"/>
</g>
</g>
<defs>
<filter id="filter0_d_2690_50758" x="0" y="0" width="52" height="52" filterUnits="userSpaceOnUse" color-interpolation-filters="sRGB">
<feFlood flood-opacity="0" result="BackgroundImageFix"/>
<feColorMatrix in="SourceAlpha" type="matrix" values="0 0 0 0 0 0 0 0 0 0 0 0 0 0 0 0 0 0 127 0" result="hardAlpha"/>
<feMorphology radius="2" operator="erode" in="SourceAlpha" result="effect1_dropShadow_2690_50758"/>
<feOffset dy="2"/>
<feGaussianBlur stdDeviation="4"/>
<feComposite in2="hardAlpha" operator="out"/>
<feColorMatrix type="matrix" values="0 0 0 0 0 0 0 0 0 0 0 0 0 0 0 0 0 0 0.25 0"/>
<feBlend mode="normal" in2="BackgroundImageFix" result="effect1_dropShadow_2690_50758"/>
<feBlend mode="normal" in="SourceGraphic" in2="effect1_dropShadow_2690_50758" result="shape"/>
</filter>
</defs>
</svg>
